<?xml version="1.0" encoding="UTF-8" standalone="no"?>
<!-- Created with Inkscape (http://www.inkscape.org/) -->

<svg
   xmlns:dc="http://purl.org/dc/elements/1.1/"
   xmlns:cc="http://creativecommons.org/ns#"
   xmlns:rdf="http://www.w3.org/1999/02/22-rdf-syntax-ns#"
   xmlns:svg="http://www.w3.org/2000/svg"
   xmlns="http://www.w3.org/2000/svg"
   xmlns:sodipodi="http://sodipodi.sourceforge.net/DTD/sodipodi-0.dtd"
   xmlns:inkscape="http://www.inkscape.org/namespaces/inkscape"
   version="1.1"
   id="svg82"
   width="341"
   height="350"
   viewBox="0 0 341 350"
   sodipodi:docname="brain.svg"
   inkscape:version="0.92.5 (2060ec1f9f, 2020-04-08)">
  <metadata
     id="metadata88">
    <rdf:RDF>
      <cc:Work
         rdf:about="">
        <dc:format>image/svg+xml</dc:format>
        <dc:type
           rdf:resource="http://purl.org/dc/dcmitype/StillImage" />
        <dc:title></dc:title>
      </cc:Work>
    </rdf:RDF>
  </metadata>
  <defs
     id="defs86" />
  <sodipodi:namedview
     pagecolor="#ffffff"
     bordercolor="#666666"
     borderopacity="1"
     objecttolerance="10"
     gridtolerance="10"
     guidetolerance="10"
     inkscape:pageopacity="0"
     inkscape:pageshadow="2"
     inkscape:window-width="1848"
     inkscape:window-height="1016"
     id="namedview84"
     showgrid="false"
     inkscape:zoom="0.86368043"
     inkscape:cx="497.58854"
     inkscape:cy="94.988876"
     inkscape:window-x="72"
     inkscape:window-y="27"
     inkscape:window-maximized="1"
     inkscape:current-layer="svg82" />
  <path
     style="fill:#d40000"
     d="m 173.51282,297.5499 c -2.64527,-1.43754 -5.88148,-6.91114 -5.88148,-9.9477 0,-2.55969 2.6992,-7.16744 5.48002,-9.35483 2.49863,-1.96543 2.51998,-2.11282 2.51998,-17.40024 v -15.41802 l -2.91049,-2.15182 c -1.60076,-1.1835 -3.43566,-3.74312 -4.07755,-5.68806 -0.64188,-1.94493 -1.24523,-3.53624 -1.34077,-3.53624 -0.0955,0 -7.95475,-2.22347 -17.4649,-4.94105 l -17.2912,-4.94106 -3.59709,2.44106 c -5.41346,3.67367 -10.62007,3.33898 -14.918,-0.95895 -4.38338,-4.38338 -4.89227,-9.83923 -1.3765,-14.75757 l 1.8997,-2.65757 -4.03492,-9.9821 c -3.71954,-9.20184 -4.28041,-10.03119 -7.17543,-10.61019 -3.28876,-0.65775 -8.712847,-5.1134 -8.712847,-7.15722 0,-2.25303 -2.5279,-3.21646 -13.13765,-5.00698 l -10.63765,-1.79523 -3.08839,2.59871 c -4.18953,3.52525 -8.24428,4.28528 -12.38337,2.32115 -4.1548,-1.97158 -6.75294,-6.2241 -6.75294,-11.05292 0,-4.11477 2.9632,-9.03624 6.02598,-10.00833 1.84032,-0.58409 1.97402,-1.56561 1.97402,-14.49175 0,-12.92589 -0.13373,-13.90767 -1.97392,-14.49172 -3.49432,-1.10906 -6.02608,-5.41254 -6.02608,-10.24314 0,-3.74467 0.5486,-5.01375 3.4,-7.86514 3.20789,-3.20789 5.13886,-3.8561 10.27447,-3.44902 1.65803,0.13142 4.32584,-2.50706 11.23287,-11.109414 l 9.05839,-11.281766 -0.5998,-5.103425 c -0.76031,-6.468986 1.19796,-10.547015 6.20578,-12.923382 4.0522,-1.922896 8.69451,-1.507035 11.49789,1.029987 1.548697,1.401556 2.650257,1.067048 12.315607,-3.739856 8.92249,-4.437448 10.61479,-5.64923 10.61479,-7.600767 0,-3.134213 2.49518,-7.755366 5.21679,-9.661657 1.22552,-0.858387 4.22277,-1.560704 6.66055,-1.560704 3.8702,0 4.91491,0.5073 8.23744,4 l 3.80511,4 h 23.47267 c 22.49142,0 23.49886,-0.08252 24.09919,-1.974018 1.64017,-5.167692 10.49982,-7.633061 16.42306,-4.570033 2.68679,1.38939 5.48841,5.859554 6.23653,9.950765 0.25146,1.375153 4.80843,3.966492 16.34593,9.295167 l 15.99727,7.388454 3.81584,-2.14462 c 5.17779,-2.910085 9.52492,-2.036262 13.73728,2.761351 3.00904,3.427109 3.16527,3.981631 2.61229,9.272287 l -0.58816,5.627185 8.99012,11.196732 8.99012,11.196734 h 4.57398 c 3.86846,0 5.09844,0.52445 7.97399,3.4 2.91325,2.91325 3.4,4.08071 3.4,8.15484 0,4.24645 -0.42767,5.16167 -4,8.55994 l -4,3.80511 v 16.58011 16.58011 l 4,3.80511 c 3.4927,3.32253 4,4.36724 4,8.23744 0,2.43778 -0.70232,5.43503 -1.5607,6.66055 -3.0742,4.38903 -10.1806,6.49598 -14.36205,4.25813 -1.47006,-0.78675 -4.64114,1.42135 -17.68426,12.31397 l -15.89299,13.27263 v 4.76664 c 0,3.38551 -0.50706,5.13741 -1.75,6.04627 -0.9625,0.7038 -1.75,1.7622 -1.75,2.352 0,0.58981 -0.9,1.35802 -2,1.70715 -1.9211,0.60973 -2,1.51303 -2,22.89841 v 22.26363 l 2.45475,1.31375 c 6.19149,3.31358 6.91706,13.00618 1.36208,18.19531 -5.52977,5.16558 -14.96938,3.24188 -18.27504,-3.72427 -2.38356,-5.02298 -1.37941,-9.5042 2.98919,-13.33989 l 3.46902,-3.04584 v -22.03055 c 0,-12.1168 -0.38864,-22.03055 -0.86364,-22.03055 -1.70903,0 -6.0226,-5.20558 -6.63896,-8.01184 -0.5988,-2.7263 -1.53102,-3.16648 -19.12612,-9.03106 -10.17315,-3.39079 -18.6954,-5.96631 -18.93833,-5.72338 -0.24294,0.24293 -1.5659,3.74698 -2.93992,7.78677 l -2.49822,7.34508 2.04219,2.17382 c 4.43721,4.72319 3.14757,13.32789 -2.55781,17.0662 -2.46485,1.61503 -2.47919,1.71536 -2.47919,17.34044 0,15.43583 0.0416,15.73825 2.33068,16.96335 5.07528,2.71621 7.01158,9.5943 4.22043,14.99178 -2.94995,5.70457 -10.69837,7.84078 -16.66963,4.59575 z m 10.13874,-7.53468 c 0.59982,-1.12078 0.81066,-2.91973 0.46853,-3.99768 -0.77364,-2.43752 -4.9984,-3.6164 -7.00174,-1.95377 -1.8061,1.49893 -1.97198,6.62686 -0.23701,7.32694 2.83962,1.14581 5.73576,0.55741 6.77022,-1.37549 z m 62,0 c 1.5388,-2.87528 0.30158,-5.84336 -2.75559,-6.61066 -4.59889,-1.15425 -7.70815,5.23277 -3.83757,7.88312 2.06401,1.41331 5.5119,0.74788 6.59316,-1.27246 z m -61.99244,-54.01414 c 1.46936,-2.74553 1.20202,-3.75141 -1.46072,-5.49611 -3.39898,-2.2271 -6.56706,-0.48294 -6.56706,3.61543 0,4.75446 5.76675,6.10545 8.02778,1.88068 z M 171.89598,225.0061 c 0.68901,-1.10004 -0.14809,-4.97989 -2.89788,-13.43129 l -3.86676,-11.8844 -24.89436,-8.28851 c -13.69189,-4.55868 -25.27939,-8.05054 -25.75,-7.75969 -1.42696,0.88191 -1.05737,2.51311 2.86863,12.66078 3.43886,8.88855 4.00336,9.75 6.38908,9.75 3.54118,0 7.50891,3.31339 9.04084,7.54987 1.13789,3.14677 1.90397,3.67746 7.80378,5.40592 3.59812,1.05414 11.04203,3.25981 16.54203,4.9015 10.91634,3.25839 13.29933,3.43526 14.76464,1.09582 z m 73.75558,-0.99088 c 2.20846,-4.12655 -1.34872,-7.94491 -6.02022,-6.46223 -1.90814,0.60562 -2.49744,2.21131 -2.01853,5.5 0.49993,3.4331 6.34212,4.1324 8.03875,0.96223 z m -120.22022,-3.16223 c 0.66,-0.66 1.2,-2.145 1.2,-3.3 0,-1.155 -0.54,-2.64 -1.2,-3.3 -2.805,-2.805 -7.8,-0.69173 -7.8,3.3 0,1.155 0.54,2.64 1.2,3.3 0.66,0.66 2.145,1.2 3.3,1.2 1.155,0 2.64,-0.54 3.3,-1.2 z m 57.1082,-5.99417 c 1.15049,-3.4068 2.0918,-6.7395 2.0918,-7.406 0,-1.23155 -8.93943,-4.79374 -9.82006,-3.9131 -0.43404,0.43404 3.47104,14.95567 4.50789,16.76327 0.78117,1.36186 1.10921,0.80729 3.22037,-5.44417 z m 53.07544,-2.95185 c 2.42977,-1.79641 3.74904,-2.04579 8.09801,-1.53072 l 5.19535,0.61532 15.1115,-12.58113 c 8.31133,-6.91962 15.24858,-13.1621 15.41612,-13.87217 0.3959,-1.67788 -1.18689,-1.89352 -37.51295,-5.11067 l -30.20833,-2.67534 -2.824,3.0231 c -1.5532,1.66271 -4.18459,3.32194 -5.84754,3.68718 -2.76956,0.6083 -3.25723,1.38164 -5.8054,9.2062 -1.53002,4.69817 -2.48607,8.8441 -2.12455,9.21319 0.93082,0.9503 33.64307,11.99692 35.80864,12.09225 0.98477,0.0433 3.09669,-0.8869 4.69315,-2.06721 z m -44.82418,-21.79459 2.83103,-8.44062 -2.24525,-2.39197 c -1.77181,-1.8876 -2.23422,-3.52707 -2.19299,-7.77516 l 0.0523,-5.38318 -9.6394,-9.60323 -9.63941,-9.60323 -5.69327,2.79224 c -6.72098,3.29628 -6.84684,0.54405 1.20166,26.27712 l 5.76476,18.43136 6.45058,2.25907 c 9.57605,3.35365 9.82613,3.22847 13.11004,-6.5624 z m -28.51035,-0.53141 c -0.31067,-0.80961 -2.65833,-8.34711 -5.21702,-16.75 -2.55868,-8.40289 -4.94014,-15.54767 -5.29212,-15.8773 -1.02208,-0.95715 -33.60445,16.43979 -33.91383,18.10785 -0.21078,1.13651 4.96738,3.27391 20.99704,8.66699 11.70225,3.93714 21.88746,7.1958 22.63381,7.24146 0.79775,0.0488 1.1242,-0.52362 0.79212,-1.389 z m 132.15089,-5.72798 c 2.805,-2.805 0.69173,-7.8 -3.3,-7.8 -4.21115,0 -5.94899,4.40816 -2.92857,7.42857 1.87152,1.87152 4.5677,2.0323 6.22857,0.37143 z M 108.026,179.75368 c 1.18217,-0.86443 1.66452,-2.28694 1.44113,-4.25 -0.27215,-2.39143 -0.86847,-3.01177 -3.14626,-3.27295 -5.03279,-0.57707 -7.536917,3.83201 -4.1181,7.25083 1.9117,1.9117 3.48069,1.98502 5.82323,0.27212 z m 94.67108,-3.73587 c 2.68697,-1.43803 2.60234,-6.53691 -0.1328,-8.00071 -1.60793,-0.86054 -2.60745,-0.75218 -4.5,0.48787 -3.03415,1.98805 -3.12334,4.95104 -0.21043,6.99132 2.63706,1.84707 2.41175,1.82281 4.84323,0.52152 z m 74.40648,-2.8106 c -3.03072,-2.83643 -25.80558,-21.67638 -27.24746,-22.53981 -1.16528,-0.6978 -34.50113,16.40571 -35.6737,18.30298 -0.46157,0.74682 49.05371,5.70741 59.42116,5.95299 5.36339,0.12704 5.433,0.0929 3.5,-1.71616 z M 63.620563,170.56598 c 1.66263,-2.00334 0.48374,-6.2281 -1.95377,-7.00174 -4.22215,-1.34006 -7.15915,2.39686 -5.42846,6.90696 0.77319,2.01491 5.73579,2.07862 7.38223,0.0948 z m 34.37171,-3.09204 2.860917,-2.51585 -2.765137,-21.70255 c -1.52082,-11.9364 -3.03324,-22.00005 -3.36092,-22.36366 -0.32769,-0.3636 -5.68023,-0.41134 -11.89454,-0.10607 -11.23063,0.55168 -11.30778,0.57251 -12.7981,3.45446 -0.82464,1.59469 -2.6027,3.40215 -3.95125,4.01659 -2.42557,1.10516 -2.4519,1.26155 -2.4519,14.56272 0,13.30566 0.0272,13.46696 2.61279,15.50079 1.43704,1.13038 3.45226,3.44514 4.47827,5.14392 1.69177,2.8011 2.68223,3.24174 10.6372,4.73226 11.93415,2.23611 13.33745,2.17514 16.63267,-0.72261 z m 189.410967,-16.01334 0.2719,-18.06662 -2.44957,-1.1161 c -2.1686,-0.98808 -3.95156,-0.29854 -15.5445,6.0117 -7.20221,3.9203 -12.94846,7.56722 -12.76944,8.10427 0.6484,1.9452 27.25884,23.59739 28.71971,23.36845 1.25752,-0.19708 1.54395,-3.15556 1.7719,-18.3017 z m -139.05969,-1.79948 c 0.94052,-0.85976 0.42826,-3.61356 -2.2855,-12.28647 -3.26561,-10.43658 -3.69164,-11.22094 -6.4203,-11.82025 -1.60742,-0.35305 -4.20444,-2.10187 -5.77116,-3.88625 l -2.84857,-3.24435 -13.81114,0.76573 c -7.59613,0.42115 -14.01971,0.97429 -14.27462,1.22921 -0.25492,0.25492 0.78848,10.30509 2.31866,22.33371 l 2.78214,21.87023 3.02559,1.54425 c 2.98999,1.52608 3.22003,1.44457 19.54914,-6.92672 9.08795,-4.65903 17.06905,-8.96962 17.73576,-9.57909 z m 77.00158,4.77235 c 8.68241,-4.74074 16.14067,-8.9427 16.57389,-9.33769 0.43323,-0.39498 -3.38511,-4.16766 -8.48519,-8.38372 -9.24416,-7.64181 -9.28737,-7.66363 -13.94966,-7.04516 -3.3788,0.44821 -5.60321,0.15604 -8.01481,-1.05273 l -3.33802,-1.67313 -15.23118,7.80598 c -8.37715,4.29328 -15.23965,8.2659 -15.25,8.82805 -0.0104,0.56214 3.73668,4.75807 8.32674,9.32428 7.96624,7.92486 8.50339,8.2726 11.81797,7.65078 2.21535,-0.4156 4.71487,-0.11 6.90444,0.84414 1.88762,0.82257 3.75323,1.53228 4.14582,1.57715 0.39258,0.0449 7.81758,-3.79722 16.5,-8.53795 z m -64.22222,-11.07785 3.55942,-1.69737 -6.24661,-6.30263 c -3.43563,-3.46645 -6.5568,-6.30263 -6.93593,-6.30263 -0.37914,0 0.49086,3.6 1.93333,8 1.44247,4.4 2.9619,8 3.37652,8 0.41461,0 2.35559,-0.76382 4.31327,-1.69737 z m 103.58006,-10.40717 c 13.32076,-7.23178 14.93594,-8.38943 14.99866,-10.75 0.0387,-1.455 0.41792,-3.53524 0.84281,-4.62274 0.61384,-1.57113 -1.12879,-4.34415 -8.48367,-13.5 l -9.25619,-11.522724 h -5.92324 -5.92325 l -11.43415,10.196334 -11.43415,10.19632 0.17359,5.21105 0.17358,5.21106 10.34719,8.77945 c 5.69096,4.8287 10.49192,8.80788 10.66882,8.84262 0.1769,0.0348 7.0394,-3.58387 15.25,-8.04137 z m -76.61756,-3.64546 c 15.94137,-8.27938 16.86522,-8.91901 17.17651,-11.89222 0.31359,-2.99514 -0.39484,-3.68553 -15.1354,-14.75 -8.50542,-6.384284 -15.97506,-11.607784 -16.59922,-11.607784 -0.62415,0 -5.24357,3.90995 -10.26539,8.68877 l -9.13057,8.688784 -0.10598,6.06122 -0.10598,6.06123 8.58513,8.75 c 4.72182,4.8125 8.61849,8.75 8.65926,8.75 0.0408,0 7.65551,-3.9375 16.92164,-8.75 z m 106.34593,-3.45 c 2.805,-2.805 0.69173,-7.8 -3.3,-7.8 -2.68046,0 -4.5,1.81954 -4.5,4.5 0,2.68046 1.81954,4.5 4.5,4.5 1.155,0 2.64,-0.54 3.3,-1.2 z m -230.999997,-4 c 2.805,-2.805 0.69173,-7.8 -3.3,-7.8 -2.68046,0 -4.5,1.81954 -4.5,4.5 0,2.68046 1.81954,4.5 4.5,4.5 1.155,0 2.64,-0.54 3.3,-1.2 z m 156.628567,-0.37143 c 3.02042,-3.02041 1.28258,-7.42857 -2.92857,-7.42857 -1.155,0 -2.64,0.54 -3.3,1.2 -0.66,0.66 -1.2,2.145 -1.2,3.3 0,4.21115 4.40816,5.94899 7.42857,2.92857 z m -73.88829,-4.92857 c 1.99575,-3.14422 0.2028,-6.5 -3.47287,-6.5 -4.13187,0 -5.84153,3.16959 -3.57528,6.62833 1.9188,2.92847 5.14517,2.86972 7.04815,-0.12833 z m -52.686597,-4.02035 c 0.42287,-0.42287 -1.72503,-19.941389 -2.50127,-22.729654 -0.26795,-0.9625 -0.85863,-1.75 -1.31261,-1.75 -1.53523,0 -19.70503,23.504314 -19.24249,24.891934 0.37196,1.11589 2.56188,1.24344 11.56604,0.67368 6.10896,-0.38655 11.27961,-0.87524 11.49033,-1.08596 z m 29.668677,-1.0681 c 7.60025,-0.52406 8.11208,-0.70948 9.72735,-3.52392 2.31065,-4.02607 7.76904,-6.25257 12.27705,-5.00785 3.36994,0.93048 3.59694,0.78905 12.96948,-8.081104 l 9.5395,-9.028164 -13.145,-9.852406 c -10.68163,-8.006074 -13.48365,-9.671163 -14.95212,-8.885258 -2.69047,1.439895 -7.44047,1.17234 -11.22476,-0.632262 -3.33158,-1.588717 -3.42206,-1.565256 -13.53393,3.509117 -9.45867,4.746582 -10.17993,5.317971 -10.17993,8.064614 0,1.895383 -1.14034,4.254866 -3.17804,6.575668 l -3.178027,3.619581 1.24903,10.66522 c 0.686967,5.865864 1.443437,11.361454 1.681057,12.212414 0.45484,1.62892 2.99662,1.67111 21.94834,0.36435 z m 93.47764,-4.72643 c 0.825,-0.0395 2.65475,0.22795 4.06611,0.5944 2.24023,0.58166 4.08965,-0.71205 14.56313,-10.187254 11.3944,-10.308343 11.97649,-11.022782 11.58803,-14.222902 -0.40004,-3.295559 -0.75624,-3.528187 -16.26069,-10.619368 -8.71844,-3.9875 -16.34113,-7.25 -16.93933,-7.25 -0.59819,0 -2.2056,0.73253 -3.57202,1.627845 -1.77888,1.165569 -3.81243,1.478156 -7.16088,1.100737 l -4.67648,-0.527106 -9.30393,8.556666 c -5.11717,4.706167 -9.30394,8.928543 -9.30394,9.383057 0,0.454515 6.6375,5.81642 14.75,11.915341 13.30548,10.002974 15.0438,11.020974 17.75,10.394714 1.65,-0.38184 3.675,-0.72659 4.5,-0.76613 z m 44.06574,-21.720308 c 3.74678,-2.005214 1.82699,-7.964816 -2.56574,-7.964816 -4.21115,0 -5.94899,4.408157 -2.92857,7.428571 1.84273,1.84273 2.86643,1.942644 5.49431,0.536245 z M 96.866033,79.668205 c 2.06069,-3.128027 0.0276,-6.865219 -3.73469,-6.865219 -3.01089,0 -4.46138,1.601082 -4.48469,4.95031 -0.0269,3.858695 6.012,5.265597 8.21938,1.914909 z M 193.40603,61.228924 c 0.29303,-0.879089 -5.5613,-1.175938 -23.19136,-1.175938 -12.97083,0 -23.56578,0.3375 -23.54434,0.75 0.0214,0.4125 5.94182,5.130033 13.15639,10.483406 l 13.1174,9.733406 10.03496,-9.307468 c 5.51923,-5.119107 10.21136,-9.83664 10.42695,-10.483406 z m -55.97469,-1.375938 c 3.01433,-3.014328 0.33962,-8.254574 -3.89283,-7.626764 -3.23927,0.480488 -4.55441,3.110814 -3.12451,6.249105 1.27073,2.788952 4.8946,3.500398 7.01734,1.377659 z m 70,0 c 1.73846,-1.738458 1.48701,-6.475888 -0.38179,-7.193011 -2.92526,-1.122527 -5.34074,-0.620258 -6.38303,1.32727 -1.40639,2.627879 -1.30648,3.651583 0.53625,5.494312 1.87152,1.87152 4.5677,2.032302 6.22857,0.371429 z"
     id="path92"
     inkscape:connector-curvature="0" />
</svg>
