<svg style="width:100%;height:100%;" viewBox="0 0 24 24" xmlns="http://www.w3.org/2000/svg">
					<path fill="#353535" d="M 12 0.6 a 11.75 11.7 0 1 0 0.001 0 z"/>
					<path fill="white" d="M 12 0.5 c -6.6 0 -12 5.3 -12 11.8 c 0 5.2 3.4 9.6 8.2 11.2 c 0.6 0.1 0.8 -0.3 0.8 -0.6 c 0 -0.3 0 -1 0 -2 c -3.3 0.7 -4 -1.6 -4 -1.6 c -0.5 -1.4 -1.3 -1.7 -1.3 -1.7 c -1.1 -0.7 0.1 -0.7 0.1 -0.7 c 1.2 0.1 1.8 1.2 1.8 1.2 c 1.1 1.8 2.8 1.3 3.5 1 c 0.1 -0.8 0.4 -1.3 0.8 -1.6 c -2.7 -0.3 -5.5 -1.3 -5.5 -5.8 c 0 -1.3 0.5 -2.3 1.2 -3.2 c -0.1 -0.3 -0.5 -1.5 0.1 -3.1 c 0 0 1 -0.3 3.3 1.2 c 1 -0.3 2 -0.4 3 -0.4 c 1 0 2 0.1 3 0.4 c 2.3 -1.5 3.3 -1.2 3.3 -1.2 c 0.6 1.6 0.2 2.8 0.1 3.1 c 0.8 0.8 1.2 1.9 1.2 3.2 c 0 4.5 -2.8 5.5 -5.5 5.8 c 0.4 0.4 0.8 1.1 0.8 2.2 c 0 1.6 0 2.8 0 3.2 c 0 0.3 0.2 0.7 0.8 0.6 c 4.8 -1.5 8.2 -6 8.2 -11.2 c 0 -6.5 -5.4 -11.8 -12 -11.8 z" />
			</svg>
